<?xml version="1.0" encoding="UTF-8" standalone="no"?>
<!DOCTYPE svg PUBLIC "-//W3C//DTD SVG 1.1//EN" "http://www.w3.org/Graphics/SVG/1.1/DTD/svg11.dtd">
<svg width="100%" height="100%" viewBox="0 0 36 36" version="1.1" xmlns="http://www.w3.org/2000/svg" xmlns:xlink="http://www.w3.org/1999/xlink" xml:space="preserve" xmlns:serif="http://www.serif.com/" style="fill-rule:evenodd;clip-rule:evenodd;stroke-linejoin:round;stroke-miterlimit:2;">
    <g>
        <path d="M10.5,1.5L31.5,1.5C33.146,1.5 34.5,2.854 34.5,4.5L34.5,25.5C34.5,27.146 33.146,28.5 31.5,28.5L10.5,28.5C8.854,28.5 7.5,27.146 7.5,25.5L7.5,4.5C7.5,2.854 8.854,1.5 10.5,1.5ZM10.5,25.5L31.5,25.5L31.5,4.5L10.5,4.5L10.5,25.5ZM4.5,7.5L1.5,7.5L1.5,31.5C1.5,33.146 2.854,34.5 4.5,34.5L28.5,34.5L28.5,31.5L4.5,31.5L4.5,7.5ZM19.815,20.745L23.94,15.435L29.25,22.5L12.75,22.5L16.875,17.205L19.815,20.745Z" style="fill:white;"/>
    </g>
</svg>
