<?xml version="1.0" encoding="UTF-8" standalone="no"?>
<!DOCTYPE svg PUBLIC "-//W3C//DTD SVG 1.1//EN" "http://www.w3.org/Graphics/SVG/1.1/DTD/svg11.dtd">
<svg width="100%" height="100%" viewBox="0 0 24 24" version="1.1" xmlns="http://www.w3.org/2000/svg" xmlns:xlink="http://www.w3.org/1999/xlink" xml:space="preserve" xmlns:serif="http://www.serif.com/" style="fill-rule:evenodd;clip-rule:evenodd;stroke-linejoin:round;stroke-miterlimit:2;">
    <path d="M15,14C12.33,14 7,15.33 7,18L7,20L23,20L23,18C23,15.33 17.67,14 15,14M6,10L6,7L4,7L4,10L1,10L1,12L4,12L4,15L6,15L6,12L9,12L9,10M15,12C17.194,12 19,10.194 19,8C19,5.806 17.194,4 15,4C12.806,4 11,5.806 11,8C11,10.194 12.806,12 15,12Z" style="fill:rgb(79,79,79);fill-rule:nonzero;"/>
</svg>
