<?xml version="1.0" encoding="UTF-8" standalone="no"?>
<!DOCTYPE svg PUBLIC "-//W3C//DTD SVG 1.1//EN" "http://www.w3.org/Graphics/SVG/1.1/DTD/svg11.dtd">
<svg width="100%" height="100%" viewBox="0 0 164 43" version="1.1" xmlns="http://www.w3.org/2000/svg" xmlns:xlink="http://www.w3.org/1999/xlink" xml:space="preserve" xmlns:serif="http://www.serif.com/" style="fill-rule:evenodd;clip-rule:evenodd;stroke-linejoin:round;stroke-miterlimit:2;">
    <g>
        <path d="M0,0L30,0L30,9L25,9L25,5L5,5L5,25L11,25L11,30L0,30L0,0ZM102.96,11.3C103.653,11.9 104.6,12.2 105.8,12.2C106.947,12.2 107.873,11.887 108.58,11.26C109.287,10.633 109.64,9.8 109.64,8.76C109.64,7.667 109.293,6.82 108.6,6.22C107.907,5.62 106.96,5.32 105.76,5.32C104.613,5.32 103.687,5.633 102.98,6.26C102.273,6.887 101.92,7.72 101.92,8.76C101.92,9.853 102.267,10.7 102.96,11.3ZM96.88,18.76L93.48,18.76L93.48,26.72C93.48,27.947 93.72,28.813 94.2,29.32C94.68,29.827 95.467,30.08 96.56,30.08C97.387,30.08 97.96,30.067 98.28,30.04L98.28,32.64C98.28,33.253 97.913,33.7 97.18,33.98C96.447,34.26 95.213,34.4 93.48,34.4C91.053,34.4 89.253,33.94 88.08,33.02C86.907,32.1 86.32,30.627 86.32,28.6L86.32,18.76L83.08,18.76L83.08,16.4C83.08,15.947 83.14,15.633 83.26,15.46C83.38,15.287 83.653,15.16 84.08,15.08C85.413,14.84 86.32,14.413 86.8,13.8C87.28,13.213 87.76,11.84 88.24,9.68L93.2,9.24L93.44,14.56L98.12,14.56L98.12,17.36C98.12,18.293 97.707,18.76 96.88,18.76ZM25.66,19.52C26.1,18.667 26.827,18.24 27.84,18.24C28.427,18.24 28.927,18.387 29.34,18.68C29.753,18.973 30.047,19.293 30.22,19.64C30.393,19.987 30.6,20.307 30.84,20.6C31.08,20.893 31.347,21.04 31.64,21.04C32.093,21.04 32.96,20.867 34.24,20.52L33.4,14.68C31.48,14.333 29.693,14.16 28.04,14.16C24.867,14.16 22.307,15.08 20.36,16.92C18.387,18.733 17.4,21.347 17.4,24.76C17.4,27.827 18.333,30.2 20.2,31.88C22.067,33.56 24.587,34.4 27.76,34.4C29.947,34.4 31.76,34.147 33.2,33.64C33.973,33.347 34.36,32.933 34.36,32.4C34.36,31.973 34.187,30.933 33.84,29.28C31.813,29.653 30.387,29.84 29.56,29.84C27.987,29.84 26.833,29.36 26.1,28.4C25.367,27.44 25,25.853 25,23.64C25,21.747 25.22,20.373 25.66,19.52ZM54.68,28.16C54.68,28.16 54.68,20.04 54.68,20.04C54.68,16.12 51.933,14.16 46.44,14.16C44.547,14.16 42.64,14.267 40.72,14.48C39.68,15.28 38.907,15.933 38.4,16.44C38.053,16.787 37.88,17.107 37.88,17.4C37.88,17.8 38.093,18.173 38.52,18.52L40.48,20.16L41.88,19.2C42.707,18.667 43.72,18.4 44.92,18.4C46.867,18.4 47.84,19.12 47.84,20.56L47.84,21.92C47.84,22.48 47.613,22.8 47.16,22.88L42.4,23.6C40.427,23.893 38.96,24.467 38,25.32C37.04,26.173 36.56,27.4 36.56,29C36.56,30.76 37.1,32.1 38.18,33.02C39.26,33.94 40.813,34.4 42.84,34.4C45.133,34.4 47.067,33.68 48.64,32.24C49.413,33.68 50.72,34.4 52.56,34.4C53.76,34.4 54.727,34.08 55.46,33.44C56.193,32.8 56.56,31.96 56.56,30.92C55.307,30.547 54.68,29.627 54.68,28.16ZM60.88,21.76L60.88,37.44C60.88,40.933 62.533,42.68 65.84,42.68C68.587,42.68 69.96,41.56 69.96,39.32C68.733,39 68.12,38.307 68.12,37.24L68.12,34.08C68.813,34.293 69.787,34.4 71.04,34.4C74.053,34.4 76.493,33.507 78.36,31.72C80.28,29.907 81.24,27.12 81.24,23.36C81.24,20.373 80.547,18.093 79.16,16.52C77.773,14.947 75.72,14.16 73,14.16C70.947,14.16 66.307,14.947 59.08,16.52C58.493,16.627 58.2,17.013 58.2,17.68L58.2,19.72C59.267,19.72 59.98,19.86 60.34,20.14C60.7,20.42 60.88,20.96 60.88,21.76ZM100.12,34L111.28,34C111.893,34 112.2,33.653 112.2,32.96L112.2,30.48C111.32,30.48 110.693,30.327 110.32,30.02C109.947,29.713 109.76,29.2 109.76,28.48L109.76,20.24C109.76,18.293 109.853,16.293 110.04,14.24L109.96,14.16L100.88,14.92C100.187,15 99.84,15.387 99.84,16.08L99.84,18.56C100.88,18.56 101.587,18.74 101.96,19.1C102.333,19.46 102.52,20.12 102.52,21.08L102.52,28.48C102.52,29.2 102.34,29.713 101.98,30.02C101.62,30.327 101,30.48 100.12,30.48L100.12,34ZM114.48,24.32C114.48,21.227 115.453,18.76 117.4,16.92C119.373,15.08 122.053,14.16 125.44,14.16C128.933,14.16 131.6,15.033 133.44,16.78C135.28,18.527 136.2,21.013 136.2,24.24C136.2,27.333 135.213,29.8 133.24,31.64C131.267,33.48 128.6,34.4 125.24,34.4C121.747,34.4 119.08,33.527 117.24,31.78C115.4,30.033 114.48,27.547 114.48,24.32ZM148.2,16.68C150.573,15 152.933,14.16 155.28,14.16C157.12,14.16 158.52,14.647 159.48,15.62C160.44,16.593 160.92,18 160.92,19.84L160.92,28.48C160.92,29.813 161.72,30.48 163.32,30.48L163.32,32.96C163.32,33.653 163.013,34 162.4,34L156.28,34C154.547,34 153.68,32.947 153.68,30.84L153.68,21.8C153.68,20.013 152.96,19.12 151.52,19.12C149.627,19.12 148.68,19.947 148.68,21.6L148.68,28.48C148.68,29.813 149.253,30.48 150.4,30.48L150.4,32.96C150.4,33.653 150.093,34 149.48,34L139.04,34L139.04,30.48C139.92,30.48 140.54,30.327 140.9,30.02C141.26,29.713 141.44,29.2 141.44,28.48L141.44,21.2C141.44,20.24 141.253,19.58 140.88,19.22C140.507,18.86 139.8,18.68 138.76,18.68L138.76,16.52C138.76,15.987 139.373,15.467 140.6,14.96C141.88,14.427 143.227,14.16 144.64,14.16C145.68,14.16 146.46,14.34 146.98,14.7C147.5,15.06 147.907,15.72 148.2,16.68ZM125.24,18.16C127.48,18.16 128.6,20.373 128.6,24.8C128.6,26.853 128.36,28.3 127.88,29.14C127.4,29.98 126.587,30.4 125.44,30.4C123.2,30.4 122.08,28.187 122.08,23.76C122.08,21.707 122.32,20.26 122.8,19.42C123.28,18.58 124.093,18.16 125.24,18.16ZM70.52,18.24C72.627,18.24 73.68,20.32 73.68,24.48C73.68,26.827 73.44,28.413 72.96,29.24C72.48,30.04 71.68,30.44 70.56,30.44C69.787,30.44 68.973,30.28 68.12,29.96L68.12,19.52C68.12,19.04 68.28,18.733 68.6,18.6C69.293,18.36 69.933,18.24 70.52,18.24ZM47.84,29.12L47.84,26L44.8,26.56C43.707,26.773 43.16,27.373 43.16,28.36C43.16,29.72 43.893,30.4 45.36,30.4C46.053,30.4 46.64,30.267 47.12,30C47.6,29.733 47.84,29.44 47.84,29.12Z" style="fill:rgb(51,51,51);"/>
    </g>
</svg>
