<?xml version="1.0" encoding="UTF-8" standalone="no"?>
<!DOCTYPE svg PUBLIC "-//W3C//DTD SVG 1.1//EN" "http://www.w3.org/Graphics/SVG/1.1/DTD/svg11.dtd">
<svg width="100%" height="100%" viewBox="0 0 35 35" version="1.1" xmlns="http://www.w3.org/2000/svg" xmlns:xlink="http://www.w3.org/1999/xlink" xml:space="preserve" xmlns:serif="http://www.serif.com/" style="fill-rule:evenodd;clip-rule:evenodd;stroke-linejoin:round;stroke-miterlimit:2;">
    <g transform="matrix(1,0,0,1,0.32,0.3)">
        <path d="M0,0L30,0L30,9L25,9L25,5L5,5L5,25L11,25L11,30L0,30L0,0ZM25.66,19.52C26.1,18.667 26.827,18.24 27.84,18.24C28.427,18.24 28.927,18.387 29.34,18.68C29.753,18.973 30.047,19.293 30.22,19.64C30.393,19.987 30.6,20.307 30.84,20.6C31.08,20.893 31.347,21.04 31.64,21.04C32.093,21.04 32.96,20.867 34.24,20.52L33.4,14.68C31.48,14.333 29.693,14.16 28.04,14.16C24.867,14.16 22.307,15.08 20.36,16.92C18.387,18.733 17.4,21.347 17.4,24.76C17.4,27.827 18.333,30.2 20.2,31.88C22.067,33.56 24.587,34.4 27.76,34.4C29.947,34.4 31.76,34.147 33.2,33.64C33.973,33.347 34.36,32.933 34.36,32.4C34.36,31.973 34.187,30.933 33.84,29.28C31.813,29.653 30.387,29.84 29.56,29.84C27.987,29.84 26.833,29.36 26.1,28.4C25.367,27.44 25,25.853 25,23.64C25,21.747 25.22,20.373 25.66,19.52Z" style="fill:rgb(51,51,51);"/>
    </g>
</svg>
