<?xml version="1.0" encoding="UTF-8" standalone="no"?>
<!DOCTYPE svg PUBLIC "-//W3C//DTD SVG 1.1//EN" "http://www.w3.org/Graphics/SVG/1.1/DTD/svg11.dtd">
<svg width="100%" height="100%" viewBox="0 0 24 24" version="1.1" xmlns="http://www.w3.org/2000/svg" xmlns:xlink="http://www.w3.org/1999/xlink" xml:space="preserve" xmlns:serif="http://www.serif.com/" style="fill-rule:evenodd;clip-rule:evenodd;stroke-linejoin:round;stroke-miterlimit:2;">
    <g>
        <path d="M4,4.44C12.536,4.44 19.56,11.464 19.56,20L16.73,20C16.73,13.017 10.983,7.27 4,7.27L4,4.44ZM13.9,20C13.9,14.569 9.431,10.1 4,10.1L4,12.93C7.878,12.93 11.07,16.122 11.07,20L13.9,20ZM6.18,15.64C7.376,15.64 8.36,16.624 8.36,17.82C8.36,19 7.38,20 6.18,20C5,20 4,19 4,17.82C4,16.624 4.984,15.64 6.18,15.64Z" style="fill:white;"/>
    </g>
</svg>
