<?xml version="1.0" encoding="UTF-8" standalone="no"?>
<!DOCTYPE svg PUBLIC "-//W3C//DTD SVG 1.1//EN" "http://www.w3.org/Graphics/SVG/1.1/DTD/svg11.dtd">
<svg width="100%" height="100%" viewBox="0 0 24 24" version="1.1" xmlns="http://www.w3.org/2000/svg" xmlns:xlink="http://www.w3.org/1999/xlink" xml:space="preserve" xmlns:serif="http://www.serif.com/" style="fill-rule:evenodd;clip-rule:evenodd;stroke-linejoin:round;stroke-miterlimit:2;">
    <path d="M7.8,2L16.2,2C19.4,2 22,4.6 22,7.8L22,16.2C22,19.382 19.382,22 16.2,22L7.8,22C4.6,22 2,19.4 2,16.2L2,7.8C2,4.618 4.618,2 7.8,2M7.6,4C5.625,4 4,5.625 4,7.6L4,16.4C4,18.39 5.61,20 7.6,20L16.4,20C18.375,20 20,18.375 20,16.4L20,7.6C20,5.61 18.39,4 16.4,4L7.6,4M17.25,5.5C17.936,5.5 18.5,6.064 18.5,6.75C18.5,7.436 17.936,8 17.25,8C16.564,8 16,7.436 16,6.75C16,6.064 16.564,5.5 17.25,5.5M12,7C14.743,7 17,9.257 17,12C17,14.743 14.743,17 12,17C9.257,17 7,14.743 7,12C7,9.257 9.257,7 12,7M12,9C10.354,9 9,10.354 9,12C9,13.646 10.354,15 12,15C13.646,15 15,13.646 15,12C15,10.354 13.646,9 12,9Z" style="fill:white;fill-rule:nonzero;"/>
</svg>
