<?xml version="1.0" encoding="UTF-8" standalone="no"?>
<!DOCTYPE svg PUBLIC "-//W3C//DTD SVG 1.1//EN" "http://www.w3.org/Graphics/SVG/1.1/DTD/svg11.dtd">
<svg width="100%" height="100%" viewBox="0 0 24 24" version="1.1" xmlns="http://www.w3.org/2000/svg" xmlns:xlink="http://www.w3.org/1999/xlink" xml:space="preserve" xmlns:serif="http://www.serif.com/" style="fill-rule:evenodd;clip-rule:evenodd;stroke-linejoin:round;stroke-miterlimit:2;">
    <g>
        <path d="M12.68,21.965L3.135,21.965C2.527,21.965 2.035,21.473 2.035,20.865L2.035,3.135C2.035,2.527 2.527,2.035 3.135,2.035L20.865,2.035C21.473,2.035 21.965,2.527 21.965,3.135L21.965,20.865C21.965,21.473 21.473,21.965 20.865,21.965L15.786,21.965L15.786,14.247L18.377,14.247L18.765,11.239L15.786,11.239L15.786,9.319C15.786,8.448 16.028,7.854 17.277,7.854L18.87,7.854L18.87,5.163C18.594,5.127 17.649,5.045 16.549,5.045C14.252,5.045 12.68,6.447 12.68,9.021L12.68,11.239L10.083,11.239L10.083,14.247L12.68,14.247L12.68,21.965Z" style="fill:rgb(51,51,51);"/>
    </g>
</svg>
